# xmcd
#
# Track frame offsets:
#	150
#	32340
#	91087
#	132305
#	161304
#	178369
#	207704
#	233374
#
# Disc length: 3510 seconds
#
# Revision: 1
# Processed by: cddbd v1.5.1PL0 Copyright (c) Steve Scherf et al.
# Submitted via: audiograbber 1.83.01
#
DISCID=5e0db408
DTITLE=Clapton Eric - 24-Nights
DYEAR=1900
DGENRE=
TTITLE0=Pretending
TTITLE1=Bad Love
TTITLE2=Old Love
TTITLE3=Wonderful Tonight
TTITLE4=Bell Botton Blues
TTITLE5=Hard Times
TTITLE6=Edge Of Darkness
TTITLE7=24-Nights Rock
EXTD=
EXTT0=
EXTT1=
EXTT2=
EXTT3=
EXTT4=
EXTT5=
EXTT6=
EXTT7=
PLAYORDER=
